# xmcd
# Copyright (C) 1995-1998 Ti Kan
#
# Track frame offsets:
#       183
#       19793
#       42510
#       61978
#       80120
#       102280
#       121343
#       144185
#       160640
#       180170
#       196795
#       219298
#       244383
#       268263
#
# Disc length: 3809 seconds
#
# Revision: 0
# Processed by: cddbd v1.5.2PL0 Copyright (c) Steve Scherf et al.
# Submitted via: CD-Import v1.0
#
DISCID=bb0edf0e
DTITLE=Talking Heads - Once In A Lifetime - Best Of
DYEAR=1992
DGENRE=
TTITLE0=Psycho Killer
TTITLE1=Take Me To The River
TTITLE2=Once In A Lifetime
TTITLE3=Burning Down The House
TTITLE4=This Must Be The Place (Naive Melody)
TTITLE5=Slippery People (Live)
TTITLE6=Life During Wartime (Live)
TTITLE7=And She Was
TTITLE8=Road To Nowhere
TTITLE9=Wild Wild Life
TTITLE10=Blind
TTITLE11=(Nothing But) Flowers
TTITLE12=Sax And Violins
TTITLE13=Lifetime Piling Up
EXTD=
EXTT0=
EXTT1=
EXTT2=
EXTT3=
EXTT4=
EXTT5=
EXTT6=
EXTT7=
EXTT8=
EXTT9=
EXTT10=
EXTT11=
EXTT12=
EXTT13=
PLAYORDER=
